{"scene":0,"scenes":[{"nodes":[0]}],"asset":{"version":"2.0","generator":"https://github.com/mikedh/trimesh"},"accessors":[{"componentType":5125,"type":"SCALAR","bufferView":0,"count":721779,"max":[176711],"min":[0]},{"componentType":5126,"type":"VEC3","byteOffset":0,"bufferView":1,"count":176712,"max":[0.20117460191249847,0.3858795464038849,0.2879657745361328],"min":[-0.434282124042511,-0.6794995069503784,-0.287765771150589]},{"componentType":5121,"normalized":true,"type":"VEC4","byteOffset":0,"bufferView":2,"count":176712,"max":[255,255,255,255],"min":[5,5,5,255]},{"componentType":5126,"count":176712,"type":"VEC3","byteOffset":0,"bufferView":3,"max":[1.0,1.0,1.0],"min":[-1.0,-1.0,-1.0]},{"componentType":5125,"type":"SCALAR","bufferView":4,"count":1991013,"max":[425429],"min":[0]},{"componentType":5126,"type":"VEC3","byteOffset":0,"bufferView":5,"count":425430,"max":[0.23479999601840973,0.21105855703353882,0.28735828399658203],"min":[-0.41528427600860596,-0.16445666551589966,-0.28758636116981506]},{"componentType":5121,"normalized":true,"type":"VEC4","byteOffset":0,"bufferView":6,"count":425430,"max":[134,134,255,255],"min":[0,5,5,255]},{"componentType":5126,"count":425430,"type":"VEC3","byteOffset":0,"bufferView":7,"max":[1.0,1.0,1.0],"min":[-1.0,-1.0,-1.0]},{"componentType":5125,"type":"SCALAR","bufferView":8,"count":81306,"max":[16134],"min":[0]},{"componentType":5126,"type":"VEC3","byteOffset":0,"bufferView":9,"count":16135,"max":[-0.029510755091905594,0.20659857988357544,0.24490000307559967],"min":[-0.3132244050502777,0.009218299761414528,0.12861335277557373]},{"componentType":5121,"normalized":true,"type":"VEC4","byteOffset":0,"bufferView":10,"count":16135,"max":[0,55,255,255],"min":[0,55,255,255]},{"componentType":5126,"count":16135,"type":"VEC3","byteOffset":0,"bufferView":11,"max":[0.9999995231628418,1.0,1.0],"min":[-1.0,-1.0,-1.0]},{"componentType":5125,"type":"SCALAR","bufferView":12,"count":178935,"max":[39315],"min":[0]},{"componentType":5126,"type":"VEC3","byteOffset":0,"bufferView":13,"count":39316,"max":[0.0029944968409836292,0.21105855703353882,0.2513476610183716],"min":[-0.3775685429573059,0.00856032595038414,0.12356279790401459]},{"componentType":5121,"normalized":true,"type":"VEC4","byteOffset":0,"bufferView":14,"count":39316,"max":[0,55,255,255],"min":[0,55,255,255]},{"componentType":5126,"count":39316,"type":"VEC3","byteOffset":0,"bufferView":15,"max":[1.0,1.0,1.0],"min":[-1.0,-1.0,-1.0]},{"componentType":5125,"type":"SCALAR","bufferView":16,"count":25173,"max":[5341],"min":[0]},{"componentType":5126,"type":"VEC3","byteOffset":0,"bufferView":17,"count":5342,"max":[-0.015300003811717033,0.20756450295448303,0.2513999938964844],"min":[-0.3104410171508789,0.03748678043484688,0.12321536242961884]},{"componentType":5121,"normalized":true,"type":"VEC4","byteOffset":0,"bufferView":18,"count":5342,"max":[0,55,255,255],"min":[0,55,255,255]},{"componentType":5126,"count":5342,"type":"VEC3","byteOffset":0,"bufferView":19,"max":[1.0,1.0,1.0],"min":[-1.0,-1.0,-1.0]},{"componentType":5125,"type":"SCALAR","bufferView":20,"count":63030,"max":[13478],"min":[0]},{"componentType":5126,"type":"VEC3","byteOffset":0,"bufferView":21,"count":13479,"max":[-0.2452218234539032,0.09189999848604202,0.09489087015390396],"min":[-0.328000009059906,-0.16445666551589966,-0.09259866178035736]},{"componentType":5121,"normalized":true,"type":"VEC4","byteOffset":0,"bufferView":22,"count":13479,"max":[0,55,255,255],"min":[0,55,255,255]},{"componentType":5126,"count":13479,"type":"VEC3","byteOffset":0,"bufferView":23,"max":[1.0,0.9999998807907104,0.9998972415924072],"min":[-1.0,-0.9999998807907104,-0.9997790455818176]},{"componentType":5125,"type":"SCALAR","bufferView":24,"count":379143,"max":[77545],"min":[0]},{"componentType":5126,"type":"VEC3","byteOffset":0,"bufferView":25,"count":77546,"max":[-0.029004234820604324,0.21105855703353882,-0.005322090350091457],"min":[-0.41528427600860596,0.00914023071527481,-0.2513999938964844]},{"componentType":5121,"normalized":true,"type":"VEC4","byteOffset":0,"bufferView":26,"count":77546,"max":[71,71,255,255],"min":[0,55,71,255]},{"componentType":5126,"count":77546,"type":"VEC3","byteOffset":0,"bufferView":27,"max":[1.0,1.0,1.0],"min":[-1.0,-1.0,-1.0]},{"componentType":5125,"type":"SCALAR","bufferView":28,"count":132105,"max":[24589],"min":[0]},{"componentType":5126,"type":"VEC3","byteOffset":0,"bufferView":29,"count":24590,"max":[-0.047308068722486496,0.20753911137580872,-0.14065000414848328],"min":[-0.375,0.01200382225215435,-0.24940000474452972]},{"componentType":5121,"normalized":true,"type":"VEC4","byteOffset":0,"bufferView":30,"count":24590,"max":[0,55,255,255],"min":[0,55,255,255]},{"componentType":5126,"count":24590,"type":"VEC3","byteOffset":0,"bufferView":31,"max":[1.0,1.0,1.0],"min":[-0.9997175931930542,-1.0,-1.0]},{"componentType":5125,"type":"SCALAR","bufferView":32,"count":176319,"max":[38727],"min":[0]},{"componentType":5126,"type":"VEC3","byteOffset":0,"bufferView":33,"count":38728,"max":[-0.029004234820604324,0.20821155607700348,-0.12790000438690186],"min":[-0.41528427600860596,0.00914023071527481,-0.25137436389923096]},{"componentType":5121,"normalized":true,"type":"VEC4","byteOffset":0,"bufferView":34,"count":38728,"max":[0,55,255,255],"min":[0,55,255,255]},{"componentType":5126,"count":38728,"type":"VEC3","byteOffset":0,"bufferView":35,"max":[1.0,1.0,1.0],"min":[-1.0,-1.0,-1.0]},{"componentType":5125,"type":"SCALAR","bufferView":36,"count":661659,"max":[133417],"min":[0]},{"componentType":5126,"type":"VEC3","byteOffset":0,"bufferView":37,"count":133418,"max":[0.04401914030313492,0.1956038475036621,0.28735828399658203],"min":[-0.3745364248752594,-0.09543728083372116,-0.28758636116981506]},{"componentType":5121,"normalized":true,"type":"VEC4","byteOffset":0,"bufferView":38,"count":133418,"max":[71,71,255,255],"min":[0,55,71,255]},{"componentType":5126,"count":133418,"type":"VEC3","byteOffset":0,"bufferView":39,"max":[1.0,1.0,1.0],"min":[-1.0,-1.0,-1.0]},{"componentType":5125,"type":"SCALAR","bufferView":40,"count":212103,"max":[42136],"min":[0]},{"componentType":5126,"type":"VEC3","byteOffset":0,"bufferView":41,"count":42137,"max":[0.04401914030313492,0.19541198015213013,0.2778618037700653],"min":[-0.2865000069141388,-0.09535853564739227,-0.2602666914463043]},{"componentType":5121,"normalized":true,"type":"VEC4","byteOffset":0,"bufferView":42,"count":42137,"max":[71,71,255,255],"min":[0,55,71,255]},{"componentType":5126,"count":42137,"type":"VEC3","byteOffset":0,"bufferView":43,"max":[1.0,1.0,1.0],"min":[-1.0,-1.0,-1.0]},{"componentType":5125,"type":"SCALAR","bufferView":44,"count":148920,"max":[28754],"min":[0]},{"componentType":5126,"type":"VEC3","byteOffset":0,"bufferView":45,"count":28755,"max":[0.02773839235305786,0.18262460827827454,0.2612665593624115],"min":[-0.27900001406669617,-0.08949489891529083,-0.26026660203933716]},{"componentType":5121,"normalized":true,"type":"VEC4","byteOffset":0,"bufferView":46,"count":28755,"max":[0,55,255,255],"min":[0,55,255,255]},{"componentType":5126,"count":28755,"type":"VEC3","byteOffset":0,"bufferView":47,"max":[0.9999879002571106,1.0,1.0],"min":[-1.0,-1.0,-1.0]},{"componentType":5125,"type":"SCALAR","bufferView":48,"count":82896,"max":[16693],"min":[0]},{"componentType":5126,"type":"VEC3","byteOffset":0,"bufferView":49,"count":16694,"max":[0.03494205325841904,0.1879289299249649,0.25465306639671326],"min":[-0.2809999883174896,-0.08712846785783768,-0.28365176916122437]},{"componentType":5121,"normalized":true,"type":"VEC4","byteOffset":0,"bufferView":50,"count":16694,"max":[0,55,255,255],"min":[0,55,255,255]},{"componentType":5126,"count":16694,"type":"VEC3","byteOffset":0,"bufferView":51,"max":[1.0,1.0,1.0],"min":[-1.0,-1.0,-1.0]},{"componentType":5125,"type":"SCALAR","bufferView":52,"count":146571,"max":[29814],"min":[0]},{"componentType":5126,"type":"VEC3","byteOffset":0,"bufferView":53,"count":29815,"max":[0.032986462116241455,0.19559481739997864,0.28735828399658203],"min":[-0.2773999869823456,-0.09543728083372116,-0.2690509855747223]},{"componentType":5121,"normalized":true,"type":"VEC4","byteOffset":0,"bufferView":54,"count":29815,"max":[0,55,255,255],"min":[0,55,255,255]},{"componentType":5126,"count":29815,"type":"VEC3","byteOffset":0,"bufferView":55,"max":[1.0,1.0,1.0],"min":[-1.0,-1.0,-1.0]},{"componentType":5125,"type":"SCALAR","bufferView":56,"count":8877,"max":[1977],"min":[0]},{"componentType":5126,"type":"VEC3","byteOffset":0,"bufferView":57,"count":1978,"max":[0.03238089755177498,0.1956038475036621,0.2509981691837311],"min":[-0.2651999890804291,-0.08414143323898315,-0.28758636116981506]},{"componentType":5121,"normalized":true,"type":"VEC4","byteOffset":0,"bufferView":58,"count":1978,"max":[0,55,255,255],"min":[0,55,255,255]},{"componentType":5126,"count":1978,"type":"VEC3","byteOffset":0,"bufferView":59,"max":[0.9984439611434937,1.0,0.9967776536941528],"min":[-1.0,-1.0,-0.6443008780479431]},{"componentType":5125,"type":"SCALAR","bufferView":60,"count":6333,"max":[1555],"min":[0]},{"componentType":5126,"type":"VEC3","byteOffset":0,"bufferView":61,"count":1556,"max":[0.027314333245158195,0.1956038475036621,0.246688112616539],"min":[-0.27649998664855957,-0.08350830525159836,-0.2528144121170044]},{"componentType":5121,"normalized":true,"type":"VEC4","byteOffset":0,"bufferView":62,"count":1556,"max":[0,55,255,255],"min":[0,55,255,255]},{"componentType":5126,"count":1556,"type":"VEC3","byteOffset":0,"bufferView":63,"max":[0.9965255856513977,1.0,0.999568521976471],"min":[-0.9999984502792358,-1.0,-0.947900116443634]},{"componentType":5125,"type":"SCALAR","bufferView":64,"count":9810,"max":[2120],"min":[0]},{"componentType":5126,"type":"VEC3","byteOffset":0,"bufferView":65,"count":2121,"max":[0.028857534751296043,0.19559481739997864,0.24867454171180725],"min":[-0.29421281814575195,-0.083027683198452,-0.24571706354618073]},{"componentType":5121,"normalized":true,"type":"VEC4","byteOffset":0,"bufferView":66,"count":2121,"max":[0,55,255,255],"min":[0,55,255,255]},{"componentType":5126,"count":2121,"type":"VEC3","byteOffset":0,"bufferView":67,"max":[0.9940232038497925,1.0,0.9985657334327698],"min":[-0.9999316930770874,-1.0,-0.993105411529541]},{"componentType":5125,"type":"SCALAR","bufferView":68,"count":15138,"max":[3172],"min":[0]},{"componentType":5126,"type":"VEC3","byteOffset":0,"bufferView":69,"count":3173,"max":[0.03148048371076584,0.19559481739997864,0.2509775161743164],"min":[-0.2798999845981598,-0.08568043261766434,-0.24817360937595367]},{"componentType":5121,"normalized":true,"type":"VEC4","byteOffset":0,"bufferView":70,"count":3173,"max":[0,55,255,255],"min":[0,55,255,255]},{"componentType":5126,"count":3173,"type":"VEC3","byteOffset":0,"bufferView":71,"max":[0.9999964237213135,0.9999975562095642,0.9999045133590698],"min":[-0.9999964237213135,-1.0,-0.9999991059303284]},{"componentType":5125,"type":"SCALAR","bufferView":72,"count":5409,"max":[1367],"min":[0]},{"componentType":5126,"type":"VEC3","byteOffset":0,"bufferView":73,"count":1368,"max":[0.034416619688272476,0.1956038475036621,0.254207968711853],"min":[-0.2439785897731781,-0.08367965370416641,-0.2514394521713257]},{"componentType":5121,"normalized":true,"type":"VEC4","byteOffset":0,"bufferView":74,"count":1368,"max":[0,55,255,255],"min":[0,55,255,255]},{"componentType":5126,"count":1368,"type":"VEC3","byteOffset":0,"bufferView":75,"max":[0.9913541674613953,0.9955974817276001,0.9913685321807861],"min":[-1.0,-1.0,-0.9913785457611084]},{"componentType":5125,"type":"SCALAR","bufferView":76,"count":11481,"max":[2544],"min":[0]},{"componentType":5126,"type":"VEC3","byteOffset":0,"bufferView":77,"count":2545,"max":[0.0334770567715168,0.1956038475036621,0.2468392252922058],"min":[-0.3000737726688385,-0.07281510531902313,-0.2336505949497223]},{"componentType":5121,"normalized":true,"type":"VEC4","byteOffset":0,"bufferView":78,"count":2545,"max":[0,55,255,255],"min":[0,55,255,255]},{"componentType":5126,"count":2545,"type":"VEC3","byteOffset":0,"bufferView":79,"max":[0.9999434947967529,1.0,0.9989707469940186],"min":[-1.0,-1.0,-0.9995556473731995]}],"meshes":[{"name":"Engine_Compound_01","extras":{"units":"from_gltf_primitive"},"primitives":[{"attributes":{"POSITION":1,"COLOR_0":2,"NORMAL":3},"indices":0,"mode":4}]},{"name":"Engine_Compound_02","extras":{"units":"from_gltf_primitive"},"primitives":[{"attributes":{"POSITION":5,"COLOR_0":6,"NORMAL":7},"indices":4,"mode":4}]},{"name":"Engine_Compound_03","extras":{"units":"from_gltf_primitive"},"primitives":[{"attributes":{"POSITION":9,"COLOR_0":10,"NORMAL":11},"indices":8,"mode":4}]},{"name":"Engine_Compound_04","extras":{"units":"from_gltf_primitive"},"primitives":[{"attributes":{"POSITION":13,"COLOR_0":14,"NORMAL":15},"indices":12,"mode":4}]},{"name":"Engine_Compound_05","extras":{"units":"from_gltf_primitive"},"primitives":[{"attributes":{"POSITION":17,"COLOR_0":18,"NORMAL":19},"indices":16,"mode":4}]},{"name":"Engine_Compound_06","extras":{"units":"from_gltf_primitive"},"primitives":[{"attributes":{"POSITION":21,"COLOR_0":22,"NORMAL":23},"indices":20,"mode":4}]},{"name":"Engine_Compound_07","extras":{"units":"from_gltf_primitive"},"primitives":[{"attributes":{"POSITION":25,"COLOR_0":26,"NORMAL":27},"indices":24,"mode":4}]},{"name":"Engine_Compound_08","extras":{"units":"from_gltf_primitive"},"primitives":[{"attributes":{"POSITION":29,"COLOR_0":30,"NORMAL":31},"indices":28,"mode":4}]},{"name":"Engine_Compound_09","extras":{"units":"from_gltf_primitive"},"primitives":[{"attributes":{"POSITION":33,"COLOR_0":34,"NORMAL":35},"indices":32,"mode":4}]},{"name":"Engine_Compound_10","extras":{"units":"from_gltf_primitive"},"primitives":[{"attributes":{"POSITION":37,"COLOR_0":38,"NORMAL":39},"indices":36,"mode":4}]},{"name":"Engine_Compound_11","extras":{"units":"from_gltf_primitive"},"primitives":[{"attributes":{"POSITION":41,"COLOR_0":42,"NORMAL":43},"indices":40,"mode":4}]},{"name":"Engine_Compound_12","extras":{"units":"from_gltf_primitive"},"primitives":[{"attributes":{"POSITION":45,"COLOR_0":46,"NORMAL":47},"indices":44,"mode":4}]},{"name":"Engine_Compound_13","extras":{"units":"from_gltf_primitive"},"primitives":[{"attributes":{"POSITION":49,"COLOR_0":50,"NORMAL":51},"indices":48,"mode":4}]},{"name":"Engine_Compound_14","extras":{"units":"from_gltf_primitive"},"primitives":[{"attributes":{"POSITION":53,"COLOR_0":54,"NORMAL":55},"indices":52,"mode":4}]},{"name":"Engine_Compound_15","extras":{"units":"from_gltf_primitive"},"primitives":[{"attributes":{"POSITION":57,"COLOR_0":58,"NORMAL":59},"indices":56,"mode":4}]},{"name":"Engine_Compound_16","extras":{"units":"from_gltf_primitive"},"primitives":[{"attributes":{"POSITION":61,"COLOR_0":62,"NORMAL":63},"indices":60,"mode":4}]},{"name":"Engine_Compound_17","extras":{"units":"from_gltf_primitive"},"primitives":[{"attributes":{"POSITION":65,"COLOR_0":66,"NORMAL":67},"indices":64,"mode":4}]},{"name":"Engine_Compound_18","extras":{"units":"from_gltf_primitive"},"primitives":[{"attributes":{"POSITION":69,"COLOR_0":70,"NORMAL":71},"indices":68,"mode":4}]},{"name":"Engine_Compound_19","extras":{"units":"from_gltf_primitive"},"primitives":[{"attributes":{"POSITION":73,"COLOR_0":74,"NORMAL":75},"indices":72,"mode":4}]},{"name":"Engine_Compound_20","extras":{"units":"from_gltf_primitive"},"primitives":[{"attributes":{"POSITION":77,"COLOR_0":78,"NORMAL":79},"indices":76,"mode":4}]}],"nodes":[{"name":"world","children":[1,2,3,4,5,6,7,8,9,10,11,12,13,14,15,16,17,18,19,20]},{"name":"Engine_Compound_01","mesh":0},{"name":"Engine_Compound_02","mesh":1},{"name":"Engine_Compound_03","mesh":2},{"name":"Engine_Compound_04","mesh":3},{"name":"Engine_Compound_05","mesh":4},{"name":"Engine_Compound_06","mesh":5},{"name":"Engine_Compound_07","mesh":6},{"name":"Engine_Compound_08","mesh":7},{"name":"Engine_Compound_09","mesh":8},{"name":"Engine_Compound_10","mesh":9},{"name":"Engine_Compound_11","mesh":10},{"name":"Engine_Compound_12","mesh":11},{"name":"Engine_Compound_13","mesh":12},{"name":"Engine_Compound_14","mesh":13},{"name":"Engine_Compound_15","mesh":14},{"name":"Engine_Compound_16","mesh":15},{"name":"Engine_Compound_17","mesh":16},{"name":"Engine_Compound_18","mesh":17},{"name":"Engine_Compound_19","mesh":18},{"name":"Engine_Compound_20","mesh":19}],"buffers":[{"uri":"AeroDTwin_Rotax_20_Compounds.bin","byteLength":50495464}],"bufferViews":[{"buffer":0,"byteOffset":0,"byteLength":2887116},{"buffer":0,"byteOffset":2887116,"byteLength":2120544},{"buffer":0,"byteOffset":5007660,"byteLength":706848},{"buffer":0,"byteOffset":5714508,"byteLength":2120544},{"buffer":0,"byteOffset":7835052,"byteLength":7964052},{"buffer":0,"byteOffset":15799104,"byteLength":5105160},{"buffer":0,"byteOffset":20904264,"byteLength":1701720},{"buffer":0,"byteOffset":22605984,"byteLength":5105160},{"buffer":0,"byteOffset":27711144,"byteLength":325224},{"buffer":0,"byteOffset":28036368,"byteLength":193620},{"buffer":0,"byteOffset":28229988,"byteLength":64540},{"buffer":0,"byteOffset":28294528,"byteLength":193620},{"buffer":0,"byteOffset":28488148,"byteLength":715740},{"buffer":0,"byteOffset":29203888,"byteLength":471792},{"buffer":0,"byteOffset":29675680,"byteLength":157264},{"buffer":0,"byteOffset":29832944,"byteLength":471792},{"buffer":0,"byteOffset":30304736,"byteLength":100692},{"buffer":0,"byteOffset":30405428,"byteLength":64104},{"buffer":0,"byteOffset":30469532,"byteLength":21368},{"buffer":0,"byteOffset":30490900,"byteLength":64104},{"buffer":0,"byteOffset":30555004,"byteLength":252120},{"buffer":0,"byteOffset":30807124,"byteLength":161748},{"buffer":0,"byteOffset":30968872,"byteLength":53916},{"buffer":0,"byteOffset":31022788,"byteLength":161748},{"buffer":0,"byteOffset":31184536,"byteLength":1516572},{"buffer":0,"byteOffset":32701108,"byteLength":930552},{"buffer":0,"byteOffset":33631660,"byteLength":310184},{"buffer":0,"byteOffset":33941844,"byteLength":930552},{"buffer":0,"byteOffset":34872396,"byteLength":528420},{"buffer":0,"byteOffset":35400816,"byteLength":295080},{"buffer":0,"byteOffset":35695896,"byteLength":98360},{"buffer":0,"byteOffset":35794256,"byteLength":295080},{"buffer":0,"byteOffset":36089336,"byteLength":705276},{"buffer":0,"byteOffset":36794612,"byteLength":464736},{"buffer":0,"byteOffset":37259348,"byteLength":154912},{"buffer":0,"byteOffset":37414260,"byteLength":464736},{"buffer":0,"byteOffset":37878996,"byteLength":2646636},{"buffer":0,"byteOffset":40525632,"byteLength":1601016},{"buffer":0,"byteOffset":42126648,"byteLength":533672},{"buffer":0,"byteOffset":42660320,"byteLength":1601016},{"buffer":0,"byteOffset":44261336,"byteLength":848412},{"buffer":0,"byteOffset":45109748,"byteLength":505644},{"buffer":0,"byteOffset":45615392,"byteLength":168548},{"buffer":0,"byteOffset":45783940,"byteLength":505644},{"buffer":0,"byteOffset":46289584,"byteLength":595680},{"buffer":0,"byteOffset":46885264,"byteLength":345060},{"buffer":0,"byteOffset":47230324,"byteLength":115020},{"buffer":0,"byteOffset":47345344,"byteLength":345060},{"buffer":0,"byteOffset":47690404,"byteLength":331584},{"buffer":0,"byteOffset":48021988,"byteLength":200328},{"buffer":0,"byteOffset":48222316,"byteLength":66776},{"buffer":0,"byteOffset":48289092,"byteLength":200328},{"buffer":0,"byteOffset":48489420,"byteLength":586284},{"buffer":0,"byteOffset":49075704,"byteLength":357780},{"buffer":0,"byteOffset":49433484,"byteLength":119260},{"buffer":0,"byteOffset":49552744,"byteLength":357780},{"buffer":0,"byteOffset":49910524,"byteLength":35508},{"buffer":0,"byteOffset":49946032,"byteLength":23736},{"buffer":0,"byteOffset":49969768,"byteLength":7912},{"buffer":0,"byteOffset":49977680,"byteLength":23736},{"buffer":0,"byteOffset":50001416,"byteLength":25332},{"buffer":0,"byteOffset":50026748,"byteLength":18672},{"buffer":0,"byteOffset":50045420,"byteLength":6224},{"buffer":0,"byteOffset":50051644,"byteLength":18672},{"buffer":0,"byteOffset":50070316,"byteLength":39240},{"buffer":0,"byteOffset":50109556,"byteLength":25452},{"buffer":0,"byteOffset":50135008,"byteLength":8484},{"buffer":0,"byteOffset":50143492,"byteLength":25452},{"buffer":0,"byteOffset":50168944,"byteLength":60552},{"buffer":0,"byteOffset":50229496,"byteLength":38076},{"buffer":0,"byteOffset":50267572,"byteLength":12692},{"buffer":0,"byteOffset":50280264,"byteLength":38076},{"buffer":0,"byteOffset":50318340,"byteLength":21636},{"buffer":0,"byteOffset":50339976,"byteLength":16416},{"buffer":0,"byteOffset":50356392,"byteLength":5472},{"buffer":0,"byteOffset":50361864,"byteLength":16416},{"buffer":0,"byteOffset":50378280,"byteLength":45924},{"buffer":0,"byteOffset":50424204,"byteLength":30540},{"buffer":0,"byteOffset":50454744,"byteLength":10180},{"buffer":0,"byteOffset":50464924,"byteLength":30540}]}